ply
format ascii 1.0
comment PCL generated
element vertex 32
property float x
property float y
property float z
element face 0
element camera 1
property float view_px
property float view_py
property float view_pz
property float x_axisx
property float x_axisy
property float x_axisz
property float y_axisx
property float y_axisy
property float y_axisz
property float z_axisx
property float z_axisy
property float z_axisz
property float focal
property float scalex
property float scaley
property float centerx
property float centery
property int viewportx
property int viewporty
property float k1
property float k2
end_header
230.21596 58.875492 42.995728
227.84584 73.304146 37.57782
224.17833 87.759735 33.023422
219.25009 102.09782 29.378021
213.11038 116.17516 26.678055
205.8205 129.85107 24.950493
197.45331 142.98892 24.212616
188.09244 155.45743 24.471756
177.83139 167.13205 25.725372
166.77267 177.89609 27.960907
155.02682 187.64203 31.156036
142.71115 196.27248 35.278824
129.94876 203.70119 40.288094
116.86716 209.85397 46.133781
103.59702 214.66933 52.757477
90.270973 218.09914 60.093014
231.21596 51.875492 56.995728
245.84584 55.304146 35.57782
223.17833 80.759735 34.023422
226.25009 118.09782 18.378021
225.11038 118.17516 25.678055
212.8205 123.85107 35.950493
204.45331 123.98892 9.212616
190.09244 142.45743 11.471756
190.83139 175.13205 18.725372
149.77267 158.89609 30.960907
171.02682 202.64203 41.156036
142.71115 198.27248 31.278824
139.94876 212.70119 30.288094
103.86716 217.85397 55.133781
119.59702 214.66933 58.757477
86.270973 199.09914 66.093018
0 0 0 1 0 0 0 1 0 0 0 1 0 0 0 0 0 32 1 0 0
